HIERARCHY
ROOT Hips
{
	OFFSET 0.00000 0.00000 0.00000
	CHANNELS 6 Xposition Yposition Zposition Zrotation Yrotation Xrotation 
	JOINT LHipJoint
	{
		OFFSET 0 0 0
		CHANNELS 3 Zrotation Yrotation Xrotation
		JOINT LeftUpLeg
		{
			OFFSET 1.53794 -1.55850 0.93568
			CHANNELS 3 Zrotation Yrotation Xrotation
			JOINT LeftLeg
			{
				OFFSET 2.28545 -6.27922 0.00000
				CHANNELS 3 Zrotation Yrotation Xrotation
				JOINT LeftFoot
				{
					OFFSET 2.37329 -6.52057 0.00000
					CHANNELS 3 Zrotation Yrotation Xrotation
					JOINT LeftToeBase
					{
						OFFSET 0.14846 -0.40788 2.09160
						CHANNELS 3 Zrotation Yrotation Xrotation
						End Site
						{
							OFFSET 0.00000 -0.00000 1.07536
						}
					}
				}
			}
		}
	}
	JOINT RHipJoint
	{
		OFFSET 0 0 0
		CHANNELS 3 Zrotation Yrotation Xrotation
		JOINT RightUpLeg
		{
			OFFSET -1.78290 -1.55850 0.93568
			CHANNELS 3 Zrotation Yrotation Xrotation
			JOINT RightLeg
			{
				OFFSET -2.24144 -6.15831 0.00000
				CHANNELS 3 Zrotation Yrotation Xrotation
				JOINT RightFoot
				{
					OFFSET -2.35091 -6.45907 0.00000
					CHANNELS 3 Zrotation Yrotation Xrotation
					JOINT RightToeBase
					{
						OFFSET -0.14428 -0.39641 2.07944
						CHANNELS 3 Zrotation Yrotation Xrotation
						End Site
						{
							OFFSET -0.00000 -0.00000 1.06864
						}
					}
				}
			}
		}
	}
	JOINT LowerBack
	{
		OFFSET 0 0 0
		CHANNELS 3 Zrotation Yrotation Xrotation
		JOINT Spine
		{
			OFFSET -0.08841 2.11430 -0.15818
			CHANNELS 3 Zrotation Yrotation Xrotation
			JOINT Spine1
			{
				OFFSET -0.00033 2.12605 -0.08097
				CHANNELS 3 Zrotation Yrotation Xrotation
				JOINT Neck
				{
					OFFSET 0 0 0
					CHANNELS 3 Zrotation Yrotation Xrotation
					JOINT Neck1
					{
						OFFSET 0.04431 1.59447 0.43193
						CHANNELS 3 Zrotation Yrotation Xrotation
						JOINT Head
						{
							OFFSET 0.00455 1.62017 -0.58852
							CHANNELS 3 Zrotation Yrotation Xrotation
							End Site
							{
								OFFSET -0.00920 1.72955 -0.25850
							}
						}
					}
				}
				JOINT LeftShoulder
				{
					OFFSET 0 0 0
					CHANNELS 3 Zrotation Yrotation Xrotation
					JOINT LeftArm
					{
						OFFSET 2.86490 1.49927 -0.33774
						CHANNELS 3 Zrotation Yrotation Xrotation
						JOINT LeftForeArm
						{
							OFFSET 4.87408 -0.00000 0.00000
							CHANNELS 3 Zrotation Yrotation Xrotation
							JOINT LeftHand
							{
								OFFSET 2.76729 -0.00000 0.00000
								CHANNELS 3 Zrotation Yrotation Xrotation
								JOINT LeftFingerBase
								{
									OFFSET 0 0 0
									CHANNELS 3 Zrotation Yrotation Xrotation
									JOINT LeftHandIndex1
									{
										OFFSET 0.98922 -0.00000 0.00000
										CHANNELS 3 Zrotation Yrotation Xrotation
										End Site
										{
											OFFSET 0.79753 -0.00000 0.00000
										}
									}
								}
								JOINT LThumb
								{
									OFFSET 0 0 0
									CHANNELS 3 Zrotation Yrotation Xrotation
									End Site
									{
										OFFSET 0.80972 -0.00000 0.80972
									}
								}
							}
						}
					}
				}
				JOINT RightShoulder
				{
					OFFSET 0 0 0
					CHANNELS 3 Zrotation Yrotation Xrotation
					JOINT RightArm
					{
						OFFSET -2.94414 1.45463 -0.25291
						CHANNELS 3 Zrotation Yrotation Xrotation
						JOINT RightForeArm
						{
							OFFSET -4.71404 -0.00000 0.00000
							CHANNELS 3 Zrotation Yrotation Xrotation
							JOINT RightHand
							{
								OFFSET -2.83468 -0.00000 0.00000
								CHANNELS 3 Zrotation Yrotation Xrotation
								JOINT RightFingerBase
								{
									OFFSET 0 0 0
									CHANNELS 3 Zrotation Yrotation Xrotation
									JOINT RightHandIndex1
									{
										OFFSET -0.86820 -0.00000 0.00000
										CHANNELS 3 Zrotation Yrotation Xrotation
										End Site
										{
											OFFSET -0.69996 -0.00000 0.00000
										}
									}
								}
								JOINT RThumb
								{
									OFFSET 0 0 0
									CHANNELS 3 Zrotation Yrotation Xrotation
									End Site
									{
										OFFSET -0.71065 -0.00000 0.71065
									}
								}
							}
						}
					}
				}
			}
		}
	}
}
MOTION
Frames: 13
Frame Time: .0083333
1.7747 15.7537 35.7427 0 0 0 0 0 0 -21 0 0 0 0 0 0 0 0 0 0 0 0 0 0 21 0 0 0 0 0 0 0 0 0 0 0 0 0 0 0 0 0 0 0 0 0 0 -16 0 0 21 0 0 11 0 0 0 -8 0 0 0 0 0 0 0 0 0 0 0 0 0 0 0 0 0 0 0 0 8 0 0 0 0 0 0 0 0 0 0 0 0 0 0 0 0 0
1.7747 15.7537 35.7427 178.4010 -2.0655 -171.4390 0.0000 0.0000 0.0000 -15.0834 -20.7549 -37.5511 10.7833 17.8274 62.0757 -1.4420 23.4987 3.2377 0.0303 -1.1242 -3.0906 0.0000 0.0000 0.0000 23.9824 5.9662 -8.6960 -4.5519 -12.8606 38.8489 2.1595 -25.6591 -3.3588 -3.2295 -11.0576 32.4745 -2.7755 4.8426 0.9868 -1.4943 6.3998 1.0711 -0.0339 3.1674 0.4160 -0.6514 -2.7228 -32.3461 3.9311 -9.4552 41.1547 -0.8565 -3.6856 24.0230 -0.0000 0.0000 0.0000 -66.8088 32.9009 54.9936 100.0927 -59.6116 -68.7291 -0.0000 -0.0000 16.7441 11.7445 2.8582 0.5940 -7.1250 0.0000 -0.0000 -11.9976 32.7312 3.6752 -0.0000 0.0000 0.0000 85.2920 -5.6403 46.8418 -94.5480 59.9217 -63.9377 0.0000 0.0000 8.9660 -11.1964 -1.7628 0.3489 7.1250 -0.0000 -0.0000 12.2768 -31.6222 4.0999
1.7756 15.8536 35.4676 178.0450 -2.3640 -171.0490 0.0000 0.0000 0.0000 -15.2135 -21.5488 -37.5142 9.4705 17.1012 57.7036 -1.1609 21.8176 4.0505 0.0582 -1.5571 -4.2832 0.0000 0.0000 0.0000 23.6879 5.5840 -8.0283 -4.4029 -12.6781 38.1752 2.0243 -25.4514 -1.2473 -3.1611 -10.9513 32.1159 -3.5422 4.7037 0.4117 -1.2595 6.2454 1.4290 0.6941 3.0700 1.0006 -1.3714 -2.9826 -33.4664 4.0785 -9.3416 41.0655 -0.6224 -3.6698 24.4440 0.0000 -0.0000 0.0000 -67.8630 33.1190 53.8518 100.4921 -59.5799 -69.0736 -0.0000 -0.0000 17.3754 11.8097 2.7078 0.5659 -7.1250 0.0000 -0.0000 -11.9241 32.5831 3.6954 0.0000 -0.0000 0.0000 83.9730 -4.7729 48.0840 -95.8057 59.8723 -65.0257 0.0000 0.0000 8.4026 -11.0870 -1.3359 0.2617 7.1250 -0.0000 -0.0000 12.3043 -31.1943 4.2390
1.7758 15.9600 35.1826 177.7090 -2.4692 -170.4370 0.0000 0.0000 0.0000 -15.2861 -22.0495 -37.7584 8.3025 16.3373 53.6452 -0.9101 20.1140 4.7483 0.0594 -1.5727 -4.3260 0.0000 0.0000 0.0000 23.3699 5.4100 -7.5262 -4.2501 -12.4860 37.4737 1.9349 -25.5115 0.4700 -3.0596 -10.7909 31.5779 -4.5725 4.7244 -1.5203 -0.8260 6.4115 2.7430 1.9433 3.0542 3.2749 -2.1979 -3.5054 -35.3563 4.2363 -9.2314 40.4587 -0.3433 -3.5965 24.6688 0.0000 -0.0000 0.0000 -69.4179 31.4093 52.6827 100.5069 -59.5787 -69.0864 -0.0000 -0.0000 17.5157 11.9039 2.5855 0.5448 -7.1250 0.0000 -0.0000 -11.8317 32.4638 3.7004 0.0000 -0.0000 0.0000 82.3312 -2.1909 48.5223 -96.2920 59.8499 -65.4463 0.0000 0.0000 8.1425 -10.6958 -0.9410 0.1777 7.1250 -0.0000 -0.0000 12.5572 -30.7927 4.4539
1.7745 16.0695 34.8921 177.5260 -2.5685 -170.0750 0.0000 0.0000 0.0000 -15.4567 -22.1997 -37.5815 7.2041 15.5014 49.6421 -0.5911 18.0030 6.1815 0.0756 -1.7733 -4.8795 0.0000 0.0000 0.0000 23.2459 5.0441 -6.9627 -4.1196 -12.3179 36.8660 1.8288 -25.7103 2.4752 -2.8819 -10.5014 30.6162 -4.9028 4.8371 -2.2010 -0.9596 6.6215 2.7752 2.0589 3.1391 3.6591 -2.6138 -3.8054 -35.2684 4.7650 -9.8420 40.5513 -0.1656 -3.8143 24.9054 0.0000 -0.0000 0.0000 -69.0446 31.5926 52.8641 100.8502 -59.5504 -69.3824 -0.0000 -0.0000 17.5137 12.0945 2.7835 0.5962 -7.1250 0.0000 -0.0000 -11.7080 32.6681 3.6014 0.0000 -0.0000 0.0000 81.9828 -2.2119 48.8241 -97.1402 59.8065 -66.1795 0.0000 0.0000 8.1110 -10.4404 -0.8975 0.1654 7.1250 -0.0000 -0.0000 12.7506 -30.7439 4.5409
1.7715 16.1528 34.6084 177.3360 -2.6759 -169.7260 0.0000 0.0000 0.0000 -15.5937 -22.4259 -37.3801 6.2106 14.6293 45.8211 -0.3600 16.1720 7.1782 0.1022 -2.0613 -5.6751 0.0000 0.0000 0.0000 23.0992 4.6625 -6.4610 -4.0284 -12.1980 36.4362 1.7168 -25.8810 4.2116 -2.6875 -10.1711 29.5325 -5.3321 4.8874 -2.8010 -0.9792 6.7513 2.9009 2.3414 3.1743 4.0760 -2.9229 -4.0774 -35.6997 4.9765 -10.1710 40.5487 -0.1005 -3.9217 25.1696 -0.0000 0.0000 0.0000 -69.0424 31.7456 52.7418 101.3070 -59.5114 -69.7761 -0.0000 -0.0000 17.5761 12.2065 2.8253 0.6109 -7.1250 0.0000 -0.0000 -11.6246 32.7136 3.5617 -0.0000 0.0000 0.0000 81.3841 -1.9859 49.2727 -98.0140 59.7559 -66.9346 0.0000 0.0000 8.0106 -10.1460 -0.6793 0.1216 7.1250 -0.0000 -0.0000 12.9500 -30.5213 4.6861
1.7668 16.2265 34.3245 177.2310 -2.7543 -169.4580 0.0000 0.0000 0.0000 -15.7147 -22.5131 -37.1205 5.3648 13.7832 42.3759 -0.1682 14.5140 8.1282 0.1394 -2.4065 -6.6306 0.0000 0.0000 0.0000 23.0317 4.2196 -5.9933 -3.9702 -12.1206 36.1599 1.6068 -26.0867 5.7899 -2.4625 -9.7694 28.2330 -5.5958 4.9389 -3.1865 -1.0606 6.8627 2.8549 2.4412 3.2182 4.2185 -3.0713 -4.2723 -35.8945 5.1251 -10.5127 40.6177 -0.1058 -4.0328 25.3934 0.0000 -0.0000 0.0000 -68.8064 32.1601 52.7694 101.8538 -59.4623 -70.2471 -0.0000 -0.0000 17.5458 12.2920 2.8733 0.6258 -7.1250 0.0000 -0.0000 -11.5632 32.7645 3.5278 0.0000 -0.0000 0.0000 80.9874 -2.1341 49.7063 -98.8314 59.7032 -67.6406 0.0000 0.0000 7.9591 -9.8504 -0.4968 0.0863 7.1250 -0.0000 -0.0000 13.1548 -30.3347 4.8241
1.7601 16.2886 34.0413 177.2400 -2.8187 -169.2840 0.0000 0.0000 0.0000 -15.7913 -22.4894 -36.7864 4.6568 12.9865 39.3181 -0.0122 13.1630 9.0825 0.1882 -2.7941 -7.7062 0.0000 0.0000 0.0000 23.0724 3.7308 -5.5735 -3.9591 -12.1058 36.1072 1.4953 -26.2858 7.2268 -2.2551 -9.3783 26.9859 -5.6728 4.9689 -3.3809 -1.1639 6.9206 2.6878 2.3899 3.2523 4.1534 -3.1409 -4.3845 -35.9205 5.2438 -10.8168 40.7625 -0.1321 -4.1370 25.6170 -0.0000 -0.0000 0.0000 -68.4669 32.7894 52.8420 102.4785 -59.4034 -70.7850 -0.0000 -0.0000 17.4497 12.3560 2.9356 0.6428 -7.1250 0.0000 -0.0000 -11.5209 32.8291 3.4960 -0.0000 -0.0000 0.0000 80.7242 -2.5543 50.1798 -99.5768 59.6506 -68.2841 0.0000 0.0000 7.9241 -9.5580 -0.3408 0.0574 7.1250 -0.0000 -0.0000 13.3599 -30.1748 4.9557
1.7513 16.3387 33.7595 177.3720 -2.8651 -169.1890 0.0000 0.0000 0.0000 -15.7939 -22.3736 -36.4545 4.1051 12.2989 36.7978 0.1086 12.2628 10.0093 0.2415 -3.1628 -8.7323 0.0000 0.0000 0.0000 23.2324 3.2202 -5.1701 -3.9787 -12.1320 36.2004 1.3805 -26.4656 8.5543 -2.0939 -9.0589 25.9797 -5.5783 4.9642 -3.4601 -1.2483 6.9132 2.4815 2.2484 3.2631 4.0042 -3.1438 -4.4175 -35.9132 5.2992 -11.0173 40.9392 -0.1747 -4.2078 25.8349 0.0000 -0.0000 0.0000 -68.1724 33.5084 52.8463 103.1436 -59.3371 -71.3573 -0.0000 -0.0000 17.3163 12.4000 2.9814 0.6552 -7.1250 0.0000 -0.0000 -11.4922 32.8765 3.4736 0.0000 -0.0000 0.0000 80.5185 -3.0659 50.6988 -100.1783 59.6049 -68.8029 0.0000 0.0000 7.9054 -9.2770 -0.1966 0.0321 7.1250 -0.0000 -0.0000 13.5573 -30.0273 5.0819
1.7404 16.3758 33.4790 177.6210 -2.8888 -169.1600 0.0000 0.0000 0.0000 -15.7280 -22.1734 -36.1633 3.7034 11.7549 34.8704 0.2066 11.8592 10.9618 0.2916 -3.4723 -9.5965 0.0000 0.0000 0.0000 23.5029 2.7316 -4.7944 -4.0318 -12.2026 36.4524 1.2675 -26.6238 9.7514 -1.9618 -8.7860 25.1281 -5.3754 4.9155 -3.6277 -1.2404 6.8509 2.4119 2.1567 3.2396 4.0525 -3.2624 -4.4283 -35.9615 5.3999 -11.0937 41.0694 -0.1271 -4.2471 26.0424 0.0000 0.0000 0.0000 -68.1625 34.0342 52.6459 103.7494 -59.2735 -71.8783 -0.0000 -0.0000 17.1751 12.4489 3.0351 0.6697 -7.1250 0.0000 -0.0000 -11.4607 32.9320 3.4481 0.0000 0.0000 0.0000 80.2175 -3.3714 51.2176 -100.5890 59.5720 -69.1572 0.0000 0.0000 7.8543 -9.0240 -0.1215 0.0193 7.1250 -0.0000 -0.0000 13.7422 -29.9486 5.1815
1.7277 16.3993 33.2004 177.9670 -2.8877 -169.1920 0.0000 0.0000 0.0000 -15.6264 -21.8681 -35.9219 3.4370 11.3709 33.5412 0.2931 11.9158 11.9723 0.3292 -3.6873 -10.1986 0.0000 0.0000 0.0000 23.8644 2.2891 -4.4595 -4.1242 -12.3239 36.8877 1.1668 -26.7927 10.7916 -1.8476 -8.5411 24.3701 -5.0290 4.8240 -3.7475 -1.2109 6.7200 2.3488 2.0010 3.1864 4.0981 -3.3955 -4.3772 -36.0063 5.5150 -11.0842 41.2302 -0.0405 -4.2633 26.2837 -0.0000 0.0000 0.0000 -68.2651 34.5845 52.3135 104.3624 -59.2060 -72.4050 -0.0000 -0.0000 17.0590 12.5182 3.0647 0.6801 -7.1250 0.0000 -0.0000 -11.4094 32.9642 3.4231 -0.0000 0.0000 0.0000 79.9573 -3.6842 51.7669 -100.8212 59.5529 -69.3574 0.0000 0.0000 7.8232 -8.7973 -0.0801 0.0124 7.1250 -0.0000 -0.0000 13.9110 -29.9036 5.2641
1.7130 16.4088 32.9234 178.3680 -2.8489 -169.2830 0.0000 0.0000 0.0000 -15.5557 -21.4343 -35.7055 3.2851 11.1429 32.7633 0.3815 12.3269 13.0953 0.3527 -3.8158 -10.5591 0.0000 0.0000 0.0000 24.2651 1.9086 -4.1855 -4.2653 -12.5054 37.5440 1.0941 -27.0225 11.6307 -1.7346 -8.2899 23.5981 -4.6028 4.7056 -3.8261 -1.1627 6.5453 2.2953 1.8143 3.1138 4.1383 -3.5056 -4.2710 -36.0395 5.6132 -10.9828 41.3834 0.0642 -4.2501 26.4997 0.0000 -0.0000 0.0000 -68.4694 35.1315 51.8967 104.9426 -59.1393 -72.9032 -0.0000 -0.0000 16.9990 12.6153 3.0518 0.6827 -7.1250 0.0000 -0.0000 -11.3299 32.9544 3.4011 0.0000 -0.0000 0.0000 79.7275 -4.0341 52.3047 -100.9059 59.5458 -69.4304 0.0000 0.0000 7.7956 -8.6117 -0.0895 0.0136 7.1250 -0.0000 -0.0000 14.0553 -29.9093 5.3198
1.6961 16.4036 32.6466 178.7720 -2.7320 -169.4520 0.0000 0.0000 0.0000 -15.6117 -20.7876 -35.4547 3.2253 11.0511 32.4524 0.4809 12.9260 14.3263 0.3477 -3.7889 -10.4834 0.0000 0.0000 0.0000 24.6328 1.5869 -3.9646 -4.4662 -12.7562 38.4627 1.0626 -27.3322 12.2109 -1.6072 -7.9950 22.6988 -4.1559 4.5779 -3.8672 -1.1091 6.3539 2.2703 1.6179 3.0324 4.1874 -3.6423 -4.1454 -36.0663 5.7176 -10.8279 41.5261 0.1973 -4.2258 26.7033 0.0000 -0.0000 0.0000 -68.7508 35.6609 51.4259 105.5094 -59.0713 -73.3897 -0.0000 -0.0000 17.0016 12.7623 3.0141 0.6823 -7.1250 0.0000 -0.0000 -11.2071 32.9215 3.3720 0.0000 -0.0000 0.0000 79.5260 -4.4135 52.8014 -100.8282 59.5523 -69.3634 0.0000 0.0000 7.7719 -8.4716 -0.1310 0.0195 7.1250 -0.0000 -0.0000 14.1690 -29.9472 5.3521
